<svg xmlns="http://www.w3.org/2000/svg" xmlns:svgjs="http://svgjs.dev/svgjs" xmlns:xlink="http://www.w3.org/1999/xlink" opacity=".3" version="1.1" viewBox="0 0 1422 800"><g fill="none" stroke="hsl(28, 100%, 71%)" stroke-linecap="butt" stroke-width="3.5"><line x1="54" x2="0" y1="0" y2="54" opacity=".95"/><line x1="108" x2="54" y1="0" y2="54" opacity=".6"/><line x1="162" x2="108" y1="0" y2="54" opacity=".5"/><line x1="162" x2="216" y1="0" y2="54" opacity=".46"/><line x1="270" x2="216" y1="0" y2="54" opacity=".24"/><line x1="324" x2="270" y1="0" y2="54" opacity=".28"/><line x1="378" x2="324" y1="0" y2="54" opacity=".45"/><line x1="432" x2="378" y1="0" y2="54" opacity=".47"/><line x1="432" x2="486" y1="0" y2="54" opacity=".62"/><line x1="540" x2="486" y1="0" y2="54" opacity=".26"/><line x1="594" x2="540" y1="0" y2="54" opacity=".68"/><line x1="594" x2="648" y1="0" y2="54" opacity=".38"/><line x1="702" x2="648" y1="0" y2="54" opacity=".71"/><line x1="756" x2="702" y1="0" y2="54" opacity=".66"/><line x1="810" x2="756" y1="0" y2="54" opacity=".99"/><line x1="810" x2="864" y1="0" y2="54" opacity=".61"/><line x1="864" x2="918" y1="0" y2="54" opacity=".21"/><line x1="972" x2="918" y1="0" y2="54" opacity=".72"/><line x1="1026" x2="972" y1="0" y2="54" opacity=".4"/><line x1="1080" x2="1026" y1="0" y2="54" opacity=".67"/><line x1="1080" x2="1134" y1="0" y2="54" opacity=".92"/><line x1="1188" x2="1134" y1="0" y2="54" opacity=".12"/><line x1="1188" x2="1242" y1="0" y2="54" opacity=".5"/><line x1="1242" x2="1296" y1="0" y2="54" opacity=".26"/><line x1="1296" x2="1350" y1="0" y2="54" opacity=".2"/><line x1="1404" x2="1350" y1="0" y2="54" opacity=".12"/><line x1="1404" x2="1458" y1="0" y2="54" opacity=".61"/><line x1="54" x2="0" y1="54" y2="108" opacity=".97"/><line x1="108" x2="54" y1="54" y2="108" opacity=".93"/><line x1="108" x2="162" y1="54" y2="108" opacity=".39"/><line x1="216" x2="162" y1="54" y2="108" opacity=".93"/><line x1="216" x2="270" y1="54" y2="108" opacity=".41"/><line x1="324" x2="270" y1="54" y2="108" opacity=".15"/><line x1="378" x2="324" y1="54" y2="108" opacity=".15"/><line x1="378" x2="432" y1="54" y2="108" opacity=".96"/><line x1="432" x2="486" y1="54" y2="108" opacity=".41"/><line x1="540" x2="486" y1="54" y2="108" opacity=".73"/><line x1="594" x2="540" y1="54" y2="108" opacity=".18"/><line x1="648" x2="594" y1="54" y2="108" opacity="1"/><line x1="648" x2="702" y1="54" y2="108" opacity=".17"/><line x1="756" x2="702" y1="54" y2="108" opacity=".91"/><line x1="810" x2="756" y1="54" y2="108" opacity=".6"/><line x1="864" x2="810" y1="54" y2="108" opacity=".15"/><line x1="864" x2="918" y1="54" y2="108" opacity=".42"/><line x1="972" x2="918" y1="54" y2="108" opacity=".59"/><line x1="972" x2="1026" y1="54" y2="108" opacity=".65"/><line x1="1080" x2="1026" y1="54" y2="108" opacity=".1"/><line x1="1134" x2="1080" y1="54" y2="108" opacity=".51"/><line x1="1134" x2="1188" y1="54" y2="108" opacity=".84"/><line x1="1188" x2="1242" y1="54" y2="108" opacity=".57"/><line x1="1242" x2="1296" y1="54" y2="108" opacity=".58"/><line x1="1296" x2="1350" y1="54" y2="108" opacity=".36"/><line x1="1404" x2="1350" y1="54" y2="108" opacity=".4"/><line x1="1458" x2="1404" y1="54" y2="108" opacity=".52"/><line x1="54" x2="0" y1="108" y2="162" opacity=".83"/><line x1="108" x2="54" y1="108" y2="162" opacity=".81"/><line x1="162" x2="108" y1="108" y2="162" opacity=".12"/><line x1="216" x2="162" y1="108" y2="162" opacity=".31"/><line x1="216" x2="270" y1="108" y2="162" opacity=".15"/><line x1="324" x2="270" y1="108" y2="162" opacity=".8"/><line x1="324" x2="378" y1="108" y2="162" opacity=".17"/><line x1="378" x2="432" y1="108" y2="162" opacity=".25"/><line x1="432" x2="486" y1="108" y2="162" opacity=".58"/><line x1="486" x2="540" y1="108" y2="162" opacity=".18"/><line x1="594" x2="540" y1="108" y2="162" opacity=".74"/><line x1="594" x2="648" y1="108" y2="162" opacity=".79"/><line x1="648" x2="702" y1="108" y2="162" opacity=".73"/><line x1="756" x2="702" y1="108" y2="162" opacity=".91"/><line x1="810" x2="756" y1="108" y2="162" opacity=".36"/><line x1="810" x2="864" y1="108" y2="162" opacity=".78"/><line x1="918" x2="864" y1="108" y2="162" opacity=".54"/><line x1="972" x2="918" y1="108" y2="162" opacity=".32"/><line x1="972" x2="1026" y1="108" y2="162" opacity=".4"/><line x1="1080" x2="1026" y1="108" y2="162" opacity=".44"/><line x1="1080" x2="1134" y1="108" y2="162" opacity=".27"/><line x1="1188" x2="1134" y1="108" y2="162" opacity=".9"/><line x1="1188" x2="1242" y1="108" y2="162" opacity=".6"/><line x1="1242" x2="1296" y1="108" y2="162" opacity=".11"/><line x1="1296" x2="1350" y1="108" y2="162" opacity=".18"/><line x1="1404" x2="1350" y1="108" y2="162" opacity=".29"/><line x1="1404" x2="1458" y1="108" y2="162" opacity=".64"/><line x1="0" x2="54" y1="162" y2="216" opacity=".96"/><line x1="54" x2="108" y1="162" y2="216" opacity=".82"/><line x1="108" x2="162" y1="162" y2="216" opacity=".09"/><line x1="216" x2="162" y1="162" y2="216" opacity=".86"/><line x1="270" x2="216" y1="162" y2="216" opacity=".29"/><line x1="324" x2="270" y1="162" y2="216" opacity=".18"/><line x1="324" x2="378" y1="162" y2="216" opacity=".99"/><line x1="378" x2="432" y1="162" y2="216" opacity=".25"/><line x1="432" x2="486" y1="162" y2="216" opacity=".5"/><line x1="540" x2="486" y1="162" y2="216" opacity=".18"/><line x1="540" x2="594" y1="162" y2="216" opacity=".46"/><line x1="594" x2="648" y1="162" y2="216" opacity=".49"/><line x1="648" x2="702" y1="162" y2="216" opacity=".96"/><line x1="756" x2="702" y1="162" y2="216" opacity=".09"/><line x1="756" x2="810" y1="162" y2="216" opacity=".94"/><line x1="810" x2="864" y1="162" y2="216" opacity=".39"/><line x1="864" x2="918" y1="162" y2="216" opacity=".09"/><line x1="972" x2="918" y1="162" y2="216" opacity=".93"/><line x1="972" x2="1026" y1="162" y2="216" opacity=".97"/><line x1="1080" x2="1026" y1="162" y2="216" opacity=".22"/><line x1="1134" x2="1080" y1="162" y2="216" opacity=".39"/><line x1="1188" x2="1134" y1="162" y2="216" opacity=".31"/><line x1="1188" x2="1242" y1="162" y2="216" opacity=".89"/><line x1="1242" x2="1296" y1="162" y2="216" opacity=".28"/><line x1="1296" x2="1350" y1="162" y2="216" opacity=".81"/><line x1="1404" x2="1350" y1="162" y2="216" opacity=".54"/><line x1="1458" x2="1404" y1="162" y2="216" opacity=".82"/><line x1="54" x2="0" y1="216" y2="270" opacity=".44"/><line x1="54" x2="108" y1="216" y2="270" opacity=".3"/><line x1="162" x2="108" y1="216" y2="270" opacity=".54"/><line x1="216" x2="162" y1="216" y2="270" opacity=".78"/><line x1="270" x2="216" y1="216" y2="270" opacity=".43"/><line x1="270" x2="324" y1="216" y2="270" opacity=".18"/><line x1="378" x2="324" y1="216" y2="270" opacity=".84"/><line x1="432" x2="378" y1="216" y2="270" opacity=".69"/><line x1="486" x2="432" y1="216" y2="270" opacity=".25"/><line x1="486" x2="540" y1="216" y2="270" opacity=".89"/><line x1="594" x2="540" y1="216" y2="270" opacity=".16"/><line x1="648" x2="594" y1="216" y2="270" opacity=".07"/><line x1="648" x2="702" y1="216" y2="270" opacity=".48"/><line x1="756" x2="702" y1="216" y2="270" opacity=".11"/><line x1="756" x2="810" y1="216" y2="270" opacity=".85"/><line x1="864" x2="810" y1="216" y2="270" opacity=".17"/><line x1="918" x2="864" y1="216" y2="270" opacity=".64"/><line x1="918" x2="972" y1="216" y2="270" opacity=".29"/><line x1="1026" x2="972" y1="216" y2="270" opacity=".56"/><line x1="1080" x2="1026" y1="216" y2="270" opacity=".85"/><line x1="1080" x2="1134" y1="216" y2="270" opacity=".39"/><line x1="1134" x2="1188" y1="216" y2="270" opacity=".72"/><line x1="1188" x2="1242" y1="216" y2="270" opacity=".42"/><line x1="1296" x2="1242" y1="216" y2="270" opacity=".41"/><line x1="1296" x2="1350" y1="216" y2="270" opacity=".36"/><line x1="1404" x2="1350" y1="216" y2="270" opacity=".22"/><line x1="1404" x2="1458" y1="216" y2="270" opacity=".86"/><line x1="54" x2="0" y1="270" y2="324" opacity=".13"/><line x1="108" x2="54" y1="270" y2="324" opacity=".84"/><line x1="108" x2="162" y1="270" y2="324" opacity=".11"/><line x1="162" x2="216" y1="270" y2="324" opacity=".5"/><line x1="216" x2="270" y1="270" y2="324" opacity=".49"/><line x1="324" x2="270" y1="270" y2="324" opacity=".09"/><line x1="324" x2="378" y1="270" y2="324" opacity=".61"/><line x1="432" x2="378" y1="270" y2="324" opacity=".88"/><line x1="432" x2="486" y1="270" y2="324" opacity=".65"/><line x1="540" x2="486" y1="270" y2="324" opacity=".65"/><line x1="540" x2="594" y1="270" y2="324" opacity=".16"/><line x1="594" x2="648" y1="270" y2="324" opacity=".51"/><line x1="648" x2="702" y1="270" y2="324" opacity=".67"/><line x1="702" x2="756" y1="270" y2="324" opacity=".24"/><line x1="810" x2="756" y1="270" y2="324" opacity=".78"/><line x1="864" x2="810" y1="270" y2="324" opacity=".77"/><line x1="864" x2="918" y1="270" y2="324" opacity=".3"/><line x1="972" x2="918" y1="270" y2="324" opacity=".44"/><line x1="972" x2="1026" y1="270" y2="324" opacity=".75"/><line x1="1080" x2="1026" y1="270" y2="324" opacity=".44"/><line x1="1134" x2="1080" y1="270" y2="324" opacity=".28"/><line x1="1188" x2="1134" y1="270" y2="324" opacity=".17"/><line x1="1242" x2="1188" y1="270" y2="324" opacity=".96"/><line x1="1296" x2="1242" y1="270" y2="324" opacity=".65"/><line x1="1296" x2="1350" y1="270" y2="324" opacity=".36"/><line x1="1404" x2="1350" y1="270" y2="324" opacity=".75"/><line x1="1404" x2="1458" y1="270" y2="324" opacity=".14"/><line x1="0" x2="54" y1="324" y2="378" opacity=".94"/><line x1="108" x2="54" y1="324" y2="378" opacity=".46"/><line x1="108" x2="162" y1="324" y2="378" opacity=".55"/><line x1="216" x2="162" y1="324" y2="378" opacity=".95"/><line x1="270" x2="216" y1="324" y2="378" opacity=".49"/><line x1="270" x2="324" y1="324" y2="378" opacity=".87"/><line x1="324" x2="378" y1="324" y2="378" opacity=".23"/><line x1="378" x2="432" y1="324" y2="378" opacity="1"/><line x1="432" x2="486" y1="324" y2="378" opacity=".88"/><line x1="540" x2="486" y1="324" y2="378" opacity=".23"/><line x1="594" x2="540" y1="324" y2="378" opacity=".94"/><line x1="648" x2="594" y1="324" y2="378" opacity=".81"/><line x1="702" x2="648" y1="324" y2="378" opacity=".8"/><line x1="702" x2="756" y1="324" y2="378" opacity=".39"/><line x1="810" x2="756" y1="324" y2="378" opacity=".1"/><line x1="810" x2="864" y1="324" y2="378" opacity=".34"/><line x1="864" x2="918" y1="324" y2="378" opacity=".44"/><line x1="918" x2="972" y1="324" y2="378" opacity=".08"/><line x1="1026" x2="972" y1="324" y2="378" opacity=".09"/><line x1="1080" x2="1026" y1="324" y2="378" opacity=".12"/><line x1="1080" x2="1134" y1="324" y2="378" opacity=".17"/><line x1="1188" x2="1134" y1="324" y2="378" opacity=".33"/><line x1="1242" x2="1188" y1="324" y2="378" opacity=".67"/><line x1="1296" x2="1242" y1="324" y2="378" opacity=".44"/><line x1="1350" x2="1296" y1="324" y2="378" opacity=".17"/><line x1="1350" x2="1404" y1="324" y2="378" opacity=".54"/><line x1="1458" x2="1404" y1="324" y2="378" opacity=".17"/><line x1="0" x2="54" y1="378" y2="432" opacity=".68"/><line x1="54" x2="108" y1="378" y2="432" opacity=".86"/><line x1="162" x2="108" y1="378" y2="432" opacity=".7"/><line x1="216" x2="162" y1="378" y2="432" opacity=".27"/><line x1="216" x2="270" y1="378" y2="432" opacity=".32"/><line x1="324" x2="270" y1="378" y2="432" opacity=".96"/><line x1="378" x2="324" y1="378" y2="432" opacity=".48"/><line x1="378" x2="432" y1="378" y2="432" opacity=".6"/><line x1="486" x2="432" y1="378" y2="432" opacity=".54"/><line x1="540" x2="486" y1="378" y2="432" opacity=".28"/><line x1="540" x2="594" y1="378" y2="432" opacity=".29"/><line x1="648" x2="594" y1="378" y2="432" opacity=".48"/><line x1="648" x2="702" y1="378" y2="432" opacity=".86"/><line x1="702" x2="756" y1="378" y2="432" opacity=".31"/><line x1="756" x2="810" y1="378" y2="432" opacity=".57"/><line x1="810" x2="864" y1="378" y2="432" opacity=".26"/><line x1="918" x2="864" y1="378" y2="432" opacity=".89"/><line x1="918" x2="972" y1="378" y2="432" opacity=".41"/><line x1="972" x2="1026" y1="378" y2="432" opacity=".6"/><line x1="1026" x2="1080" y1="378" y2="432" opacity=".48"/><line x1="1080" x2="1134" y1="378" y2="432" opacity=".24"/><line x1="1134" x2="1188" y1="378" y2="432" opacity=".48"/><line x1="1242" x2="1188" y1="378" y2="432" opacity=".18"/><line x1="1296" x2="1242" y1="378" y2="432" opacity=".19"/><line x1="1350" x2="1296" y1="378" y2="432" opacity=".98"/><line x1="1404" x2="1350" y1="378" y2="432" opacity=".1"/><line x1="1458" x2="1404" y1="378" y2="432" opacity=".31"/><line x1="54" x2="0" y1="432" y2="486" opacity=".66"/><line x1="54" x2="108" y1="432" y2="486" opacity=".44"/><line x1="108" x2="162" y1="432" y2="486" opacity=".56"/><line x1="216" x2="162" y1="432" y2="486" opacity=".49"/><line x1="270" x2="216" y1="432" y2="486" opacity=".93"/><line x1="324" x2="270" y1="432" y2="486" opacity=".19"/><line x1="324" x2="378" y1="432" y2="486" opacity=".67"/><line x1="378" x2="432" y1="432" y2="486" opacity=".84"/><line x1="486" x2="432" y1="432" y2="486" opacity=".97"/><line x1="486" x2="540" y1="432" y2="486" opacity=".37"/><line x1="540" x2="594" y1="432" y2="486" opacity=".62"/><line x1="648" x2="594" y1="432" y2="486" opacity=".64"/><line x1="648" x2="702" y1="432" y2="486" opacity=".85"/><line x1="702" x2="756" y1="432" y2="486" opacity=".72"/><line x1="756" x2="810" y1="432" y2="486" opacity=".11"/><line x1="810" x2="864" y1="432" y2="486" opacity=".83"/><line x1="918" x2="864" y1="432" y2="486" opacity=".49"/><line x1="918" x2="972" y1="432" y2="486" opacity=".76"/><line x1="972" x2="1026" y1="432" y2="486" opacity=".58"/><line x1="1080" x2="1026" y1="432" y2="486" opacity=".89"/><line x1="1134" x2="1080" y1="432" y2="486" opacity=".31"/><line x1="1134" x2="1188" y1="432" y2="486" opacity=".32"/><line x1="1188" x2="1242" y1="432" y2="486" opacity=".31"/><line x1="1296" x2="1242" y1="432" y2="486" opacity=".43"/><line x1="1296" x2="1350" y1="432" y2="486" opacity=".66"/><line x1="1404" x2="1350" y1="432" y2="486" opacity=".9"/><line x1="1404" x2="1458" y1="432" y2="486" opacity=".22"/><line x1="0" x2="54" y1="486" y2="540" opacity=".58"/><line x1="54" x2="108" y1="486" y2="540" opacity=".9"/><line x1="162" x2="108" y1="486" y2="540" opacity=".95"/><line x1="162" x2="216" y1="486" y2="540" opacity=".39"/><line x1="216" x2="270" y1="486" y2="540" opacity=".94"/><line x1="324" x2="270" y1="486" y2="540" opacity=".91"/><line x1="378" x2="324" y1="486" y2="540" opacity=".07"/><line x1="432" x2="378" y1="486" y2="540" opacity=".19"/><line x1="432" x2="486" y1="486" y2="540" opacity=".71"/><line x1="540" x2="486" y1="486" y2="540" opacity=".13"/><line x1="540" x2="594" y1="486" y2="540" opacity=".81"/><line x1="594" x2="648" y1="486" y2="540" opacity=".43"/><line x1="648" x2="702" y1="486" y2="540" opacity=".95"/><line x1="702" x2="756" y1="486" y2="540" opacity=".27"/><line x1="756" x2="810" y1="486" y2="540" opacity=".81"/><line x1="864" x2="810" y1="486" y2="540" opacity=".36"/><line x1="864" x2="918" y1="486" y2="540" opacity=".45"/><line x1="918" x2="972" y1="486" y2="540" opacity=".36"/><line x1="972" x2="1026" y1="486" y2="540" opacity=".69"/><line x1="1080" x2="1026" y1="486" y2="540" opacity=".94"/><line x1="1134" x2="1080" y1="486" y2="540" opacity=".79"/><line x1="1188" x2="1134" y1="486" y2="540" opacity=".72"/><line x1="1242" x2="1188" y1="486" y2="540" opacity=".16"/><line x1="1296" x2="1242" y1="486" y2="540" opacity=".62"/><line x1="1350" x2="1296" y1="486" y2="540" opacity=".86"/><line x1="1350" x2="1404" y1="486" y2="540" opacity=".89"/><line x1="1404" x2="1458" y1="486" y2="540" opacity=".78"/><line x1="54" x2="0" y1="540" y2="594" opacity=".46"/><line x1="108" x2="54" y1="540" y2="594" opacity=".62"/><line x1="162" x2="108" y1="540" y2="594" opacity=".37"/><line x1="162" x2="216" y1="540" y2="594" opacity=".73"/><line x1="216" x2="270" y1="540" y2="594" opacity=".97"/><line x1="324" x2="270" y1="540" y2="594" opacity=".41"/><line x1="378" x2="324" y1="540" y2="594" opacity=".17"/><line x1="378" x2="432" y1="540" y2="594" opacity=".22"/><line x1="432" x2="486" y1="540" y2="594" opacity=".71"/><line x1="486" x2="540" y1="540" y2="594" opacity=".11"/><line x1="540" x2="594" y1="540" y2="594" opacity=".08"/><line x1="594" x2="648" y1="540" y2="594" opacity=".31"/><line x1="648" x2="702" y1="540" y2="594" opacity=".15"/><line x1="756" x2="702" y1="540" y2="594" opacity=".38"/><line x1="756" x2="810" y1="540" y2="594" opacity=".13"/><line x1="810" x2="864" y1="540" y2="594" opacity=".91"/><line x1="864" x2="918" y1="540" y2="594" opacity=".33"/><line x1="918" x2="972" y1="540" y2="594" opacity=".45"/><line x1="972" x2="1026" y1="540" y2="594" opacity=".09"/><line x1="1026" x2="1080" y1="540" y2="594" opacity=".95"/><line x1="1134" x2="1080" y1="540" y2="594" opacity=".23"/><line x1="1134" x2="1188" y1="540" y2="594" opacity=".28"/><line x1="1242" x2="1188" y1="540" y2="594" opacity=".88"/><line x1="1242" x2="1296" y1="540" y2="594" opacity=".13"/><line x1="1296" x2="1350" y1="540" y2="594" opacity=".48"/><line x1="1404" x2="1350" y1="540" y2="594" opacity=".7"/><line x1="1404" x2="1458" y1="540" y2="594" opacity=".96"/><line x1="54" x2="0" y1="594" y2="648" opacity=".25"/><line x1="108" x2="54" y1="594" y2="648" opacity=".69"/><line x1="162" x2="108" y1="594" y2="648" opacity=".34"/><line x1="216" x2="162" y1="594" y2="648" opacity=".2"/><line x1="216" x2="270" y1="594" y2="648" opacity=".15"/><line x1="270" x2="324" y1="594" y2="648" opacity=".94"/><line x1="378" x2="324" y1="594" y2="648" opacity=".27"/><line x1="378" x2="432" y1="594" y2="648" opacity=".38"/><line x1="486" x2="432" y1="594" y2="648" opacity=".83"/><line x1="540" x2="486" y1="594" y2="648" opacity=".33"/><line x1="540" x2="594" y1="594" y2="648" opacity=".09"/><line x1="594" x2="648" y1="594" y2="648" opacity=".07"/><line x1="702" x2="648" y1="594" y2="648" opacity=".85"/><line x1="756" x2="702" y1="594" y2="648" opacity=".6"/><line x1="810" x2="756" y1="594" y2="648" opacity=".24"/><line x1="810" x2="864" y1="594" y2="648" opacity=".94"/><line x1="918" x2="864" y1="594" y2="648" opacity=".98"/><line x1="972" x2="918" y1="594" y2="648" opacity=".2"/><line x1="1026" x2="972" y1="594" y2="648" opacity=".35"/><line x1="1080" x2="1026" y1="594" y2="648" opacity=".24"/><line x1="1080" x2="1134" y1="594" y2="648" opacity=".14"/><line x1="1188" x2="1134" y1="594" y2="648" opacity=".87"/><line x1="1188" x2="1242" y1="594" y2="648" opacity=".56"/><line x1="1242" x2="1296" y1="594" y2="648" opacity=".98"/><line x1="1350" x2="1296" y1="594" y2="648" opacity=".31"/><line x1="1350" x2="1404" y1="594" y2="648" opacity=".69"/><line x1="1458" x2="1404" y1="594" y2="648" opacity=".42"/><line x1="54" x2="0" y1="648" y2="702" opacity=".83"/><line x1="54" x2="108" y1="648" y2="702" opacity=".66"/><line x1="108" x2="162" y1="648" y2="702" opacity=".49"/><line x1="162" x2="216" y1="648" y2="702" opacity=".19"/><line x1="270" x2="216" y1="648" y2="702" opacity=".34"/><line x1="324" x2="270" y1="648" y2="702" opacity=".5"/><line x1="324" x2="378" y1="648" y2="702" opacity=".18"/><line x1="432" x2="378" y1="648" y2="702" opacity=".4"/><line x1="486" x2="432" y1="648" y2="702" opacity=".46"/><line x1="540" x2="486" y1="648" y2="702" opacity=".26"/><line x1="594" x2="540" y1="648" y2="702" opacity=".83"/><line x1="648" x2="594" y1="648" y2="702" opacity=".31"/><line x1="648" x2="702" y1="648" y2="702" opacity=".47"/><line x1="756" x2="702" y1="648" y2="702" opacity=".52"/><line x1="756" x2="810" y1="648" y2="702" opacity=".43"/><line x1="810" x2="864" y1="648" y2="702" opacity=".61"/><line x1="864" x2="918" y1="648" y2="702" opacity=".33"/><line x1="972" x2="918" y1="648" y2="702" opacity=".43"/><line x1="972" x2="1026" y1="648" y2="702" opacity=".66"/><line x1="1026" x2="1080" y1="648" y2="702" opacity=".26"/><line x1="1080" x2="1134" y1="648" y2="702" opacity=".18"/><line x1="1188" x2="1134" y1="648" y2="702" opacity=".34"/><line x1="1242" x2="1188" y1="648" y2="702" opacity=".47"/><line x1="1242" x2="1296" y1="648" y2="702" opacity=".23"/><line x1="1350" x2="1296" y1="648" y2="702" opacity=".44"/><line x1="1350" x2="1404" y1="648" y2="702" opacity=".11"/><line x1="1404" x2="1458" y1="648" y2="702" opacity=".82"/><line x1="0" x2="54" y1="702" y2="756" opacity=".59"/><line x1="108" x2="54" y1="702" y2="756" opacity=".13"/><line x1="162" x2="108" y1="702" y2="756" opacity=".63"/><line x1="162" x2="216" y1="702" y2="756" opacity=".68"/><line x1="270" x2="216" y1="702" y2="756" opacity=".66"/><line x1="270" x2="324" y1="702" y2="756" opacity=".65"/><line x1="324" x2="378" y1="702" y2="756" opacity=".2"/><line x1="432" x2="378" y1="702" y2="756" opacity=".17"/><line x1="432" x2="486" y1="702" y2="756" opacity=".08"/><line x1="540" x2="486" y1="702" y2="756" opacity=".73"/><line x1="540" x2="594" y1="702" y2="756" opacity=".47"/><line x1="648" x2="594" y1="702" y2="756" opacity=".52"/><line x1="702" x2="648" y1="702" y2="756" opacity=".16"/><line x1="702" x2="756" y1="702" y2="756" opacity=".58"/><line x1="756" x2="810" y1="702" y2="756" opacity=".41"/><line x1="864" x2="810" y1="702" y2="756" opacity=".42"/><line x1="864" x2="918" y1="702" y2="756" opacity=".83"/><line x1="972" x2="918" y1="702" y2="756" opacity=".54"/><line x1="972" x2="1026" y1="702" y2="756" opacity=".84"/><line x1="1080" x2="1026" y1="702" y2="756" opacity=".7"/><line x1="1080" x2="1134" y1="702" y2="756" opacity=".18"/><line x1="1134" x2="1188" y1="702" y2="756" opacity=".51"/><line x1="1242" x2="1188" y1="702" y2="756" opacity=".13"/><line x1="1296" x2="1242" y1="702" y2="756" opacity=".55"/><line x1="1296" x2="1350" y1="702" y2="756" opacity=".43"/><line x1="1350" x2="1404" y1="702" y2="756" opacity=".51"/><line x1="1458" x2="1404" y1="702" y2="756" opacity=".59"/><line x1="0" x2="54" y1="756" y2="810" opacity=".11"/><line x1="108" x2="54" y1="756" y2="810" opacity=".42"/><line x1="108" x2="162" y1="756" y2="810" opacity=".38"/><line x1="162" x2="216" y1="756" y2="810" opacity=".41"/><line x1="216" x2="270" y1="756" y2="810" opacity=".79"/><line x1="324" x2="270" y1="756" y2="810" opacity=".12"/><line x1="378" x2="324" y1="756" y2="810" opacity=".99"/><line x1="378" x2="432" y1="756" y2="810" opacity=".87"/><line x1="432" x2="486" y1="756" y2="810" opacity=".45"/><line x1="486" x2="540" y1="756" y2="810" opacity=".57"/><line x1="594" x2="540" y1="756" y2="810" opacity=".68"/><line x1="594" x2="648" y1="756" y2="810" opacity=".64"/><line x1="702" x2="648" y1="756" y2="810" opacity=".37"/><line x1="702" x2="756" y1="756" y2="810" opacity=".74"/><line x1="756" x2="810" y1="756" y2="810" opacity=".79"/><line x1="810" x2="864" y1="756" y2="810" opacity=".57"/><line x1="918" x2="864" y1="756" y2="810" opacity=".88"/><line x1="918" x2="972" y1="756" y2="810" opacity=".3"/><line x1="1026" x2="972" y1="756" y2="810" opacity=".15"/><line x1="1026" x2="1080" y1="756" y2="810" opacity=".43"/><line x1="1080" x2="1134" y1="756" y2="810" opacity=".99"/><line x1="1134" x2="1188" y1="756" y2="810" opacity=".57"/><line x1="1242" x2="1188" y1="756" y2="810" opacity=".84"/><line x1="1242" x2="1296" y1="756" y2="810" opacity=".18"/><line x1="1296" x2="1350" y1="756" y2="810" opacity=".81"/><line x1="1404" x2="1350" y1="756" y2="810" opacity=".82"/><line x1="1404" x2="1458" y1="756" y2="810" opacity=".75"/></g></svg>